<?xml version="1.0" encoding="utf-8"?>
<!-- Generator: Adobe Illustrator 24.0.2, SVG Export Plug-In . SVG Version: 6.00 Build 0)  -->
<svg version="1.1" id="Capa_1" xmlns="http://www.w3.org/2000/svg" xmlns:xlink="http://www.w3.org/1999/xlink" x="0px" y="0px"
	 viewBox="0 0 595.28 841.89" style="enable-background:new 0 0 595.28 841.89;" xml:space="preserve">
<style type="text/css">
	.st0{fill:#00A9C2;}
	.st1{fill:#322C33;}
</style>
<g id="XMLID_59_">
	<path class="st0" d="M145.78,390.4v44.94h-9.37V390.4H145.78z"/>
	<path class="st0" d="M173.48,435.34h-9.37V390.4h10.65l20.02,22.07c0.69,0.7,1.04,1.59,1.04,2.7h0.16c0-1.1,0.35-2,1.04-2.7
		l20.02-22.07h10.65v44.94h-9.37v-32.99c0-0.45,0.07-0.93,0.2-1.44c0.13-0.51,0.28-0.99,0.44-1.44h-0.16
		c-0.37,0.98-0.91,1.84-1.6,2.58l-17.22,18.39h-8.09l-17.3-18.39c-0.69-0.74-1.23-1.59-1.6-2.58h-0.16
		c0.16,0.45,0.31,0.93,0.44,1.44c0.13,0.51,0.2,0.99,0.2,1.44V435.34z"/>
	<path class="st0" d="M280.23,423.88H255l-5.93,11.47h-9.45l23.54-44.94h8.97l23.46,44.94h-9.45L280.23,423.88z M258.04,417.87
		h19.14l-8.81-17.17c-0.43-0.86-0.64-1.8-0.64-2.82h-0.16c0,1.02-0.21,1.96-0.64,2.82L258.04,417.87z"/>
	<path class="st0" d="M322.11,414.99c0-1.1,0.27-2.04,0.8-2.82l13.93-21.77h9.53l-19.7,29.62v15.33h-9.37v-15.33l-19.62-29.62h9.45
		l14.01,21.77c0.53,0.78,0.8,1.72,0.8,2.82H322.11z"/>
	<path class="st0" d="M391.45,428.91v6.44h-33.87V390.4h32.67v6.44h-23.3v12.39h21.86v6.44h-21.86v13.24H391.45z"/>
	<path class="st0" d="M416.76,435.34h-9.37V390.4h10.65l20.02,22.07c0.69,0.7,1.04,1.59,1.04,2.7h0.16c0-1.1,0.35-2,1.04-2.7
		l20.02-22.07h10.65v44.94h-9.37v-32.99c0-0.45,0.07-0.93,0.2-1.44c0.13-0.51,0.28-0.99,0.44-1.44h-0.16
		c-0.37,0.98-0.91,1.84-1.6,2.58l-17.22,18.39h-8.09l-17.3-18.39c-0.69-0.74-1.23-1.59-1.6-2.58h-0.16
		c0.16,0.45,0.31,0.93,0.44,1.44c0.13,0.51,0.2,0.99,0.2,1.44V435.34z"/>
</g>
<g id="XMLID_53_">
	<path class="st1" d="M140.89,390.63v44.94h-9.37v-44.94H140.89z"/>
	<path class="st1" d="M168.6,435.57h-9.37v-44.94h10.65l20.02,22.07c0.69,0.7,1.04,1.59,1.04,2.7h0.16c0-1.1,0.35-2,1.04-2.7
		l20.02-22.07h10.65v44.94h-9.37v-32.99c0-0.45,0.07-0.93,0.2-1.44c0.13-0.51,0.28-0.99,0.44-1.44h-0.16
		c-0.37,0.98-0.91,1.84-1.6,2.58l-17.22,18.39h-8.09l-17.3-18.39c-0.69-0.74-1.23-1.59-1.6-2.58h-0.16
		c0.16,0.45,0.31,0.93,0.44,1.44c0.13,0.51,0.2,0.99,0.2,1.44V435.57z"/>
	<path class="st1" d="M275.34,424.11h-25.22l-5.93,11.47h-9.45l23.54-44.94h8.97l23.46,44.94h-9.45L275.34,424.11z M253.16,418.1
		h19.14l-8.81-17.17c-0.43-0.86-0.64-1.8-0.64-2.82h-0.16c0,1.02-0.21,1.96-0.64,2.82L253.16,418.1z"/>
	<path class="st1" d="M317.22,415.22c0-1.1,0.27-2.04,0.8-2.82l13.93-21.77h9.53l-19.7,29.62v15.33h-9.37v-15.33l-19.62-29.62h9.45
		l14.01,21.77c0.53,0.78,0.8,1.72,0.8,2.82H317.22z"/>
	<path class="st1" d="M386.57,429.13v6.44H352.7v-44.94h32.67v6.44h-23.3v12.39h21.86v6.44h-21.86v13.24H386.57z"/>
	<path class="st1" d="M411.88,435.57h-9.37v-44.94h10.65l20.02,22.07c0.69,0.7,1.04,1.59,1.04,2.7h0.16c0-1.1,0.35-2,1.04-2.7
		l20.02-22.07h10.65v44.94h-9.37v-32.99c0-0.45,0.07-0.93,0.2-1.44c0.13-0.51,0.28-0.99,0.44-1.44h-0.16
		c-0.38,0.98-0.91,1.84-1.6,2.58l-17.22,18.39h-8.09L413,402.28c-0.7-0.74-1.23-1.59-1.6-2.58h-0.16c0.16,0.45,0.31,0.93,0.44,1.44
		c0.13,0.51,0.2,0.99,0.2,1.44V435.57z"/>
</g>
<g>
</g>
<g>
</g>
<g>
</g>
<g>
</g>
<g>
</g>
<g>
</g>
</svg>
